<svg width="46" height="47" viewBox="0 0 46 47" fill="none" xmlns="http://www.w3.org/2000/svg">
<path d="M41.6599 6.53428L24.444 0.92446C23.5059 0.618767 22.4937 0.618767 21.5562 0.92446L4.33965 6.53428C2.88678 7.00755 2.88678 9.04529 4.33965 9.51855L7.34104 10.4965C6.6825 11.3599 6.27763 12.4131 6.23751 13.5665C5.64315 13.9279 5.2247 14.5798 5.2247 15.3581C5.2247 16.0638 5.57526 16.6575 6.08012 17.0372L4.50444 24.5571C4.36742 25.211 4.83649 25.8316 5.46787 25.8316H8.93092C9.56293 25.8316 10.032 25.211 9.89498 24.5571L8.31929 17.0372C8.82415 16.6575 9.17472 16.0638 9.17472 15.3581C9.17472 14.6008 8.77539 13.9671 8.2082 13.5993C8.2551 12.6161 8.7291 11.7468 9.48516 11.1956L21.5555 15.129C22.1147 15.311 23.1874 15.5381 24.4434 15.129L41.6599 9.51921C43.1134 9.04529 43.1134 7.00821 41.6599 6.53428ZM25.0235 17.1314C23.2627 17.7048 21.7623 17.388 20.9754 17.1314L12.0249 14.2152L11.1497 21.6422C11.1497 23.9562 16.4551 25.8316 22.9998 25.8316C29.5445 25.8316 34.8498 23.9562 34.8498 21.6422L33.9746 14.2146L25.0235 17.1314Z" fill="white"/>
<path d="M1.824 42.8315V31.6315H3.008V41.8075H9.28V42.8315H1.824ZM14.4489 42.9115C13.5742 42.9115 12.8062 42.7302 12.1449 42.3675C11.4835 41.9942 10.9662 41.4875 10.5929 40.8475C10.2195 40.1969 10.0329 39.4555 10.0329 38.6235C10.0329 37.7915 10.2089 37.0555 10.5609 36.4155C10.9235 35.7755 11.4142 35.2742 12.0329 34.9115C12.6622 34.5382 13.3662 34.3515 14.1449 34.3515C14.9342 34.3515 15.6329 34.5329 16.2409 34.8955C16.8595 35.2475 17.3449 35.7489 17.6969 36.3995C18.0489 37.0395 18.2249 37.7809 18.2249 38.6235C18.2249 38.6769 18.2195 38.7355 18.2089 38.7995C18.2089 38.8529 18.2089 38.9115 18.2089 38.9755H10.8969V38.1275H17.6009L17.1529 38.4635C17.1529 37.8555 17.0195 37.3169 16.7529 36.8475C16.4969 36.3675 16.1449 35.9942 15.6969 35.7275C15.2489 35.4609 14.7315 35.3275 14.1449 35.3275C13.5689 35.3275 13.0515 35.4609 12.5929 35.7275C12.1342 35.9942 11.7769 36.3675 11.5209 36.8475C11.2649 37.3275 11.1369 37.8769 11.1369 38.4955V38.6715C11.1369 39.3115 11.2755 39.8769 11.5529 40.3675C11.8409 40.8475 12.2355 41.2262 12.7369 41.5035C13.2489 41.7702 13.8302 41.9035 14.4809 41.9035C14.9929 41.9035 15.4675 41.8129 15.9049 41.6315C16.3529 41.4502 16.7369 41.1729 17.0569 40.7995L17.6969 41.5355C17.3235 41.9835 16.8542 42.3249 16.2889 42.5595C15.7342 42.7942 15.1209 42.9115 14.4489 42.9115ZM25.5668 42.8315V40.9755L25.5188 40.6715V37.5675C25.5188 36.8529 25.3161 36.3035 24.9108 35.9195C24.5161 35.5355 23.9241 35.3435 23.1348 35.3435C22.5908 35.3435 22.0734 35.4342 21.5828 35.6155C21.0921 35.7969 20.6761 36.0369 20.3348 36.3355L19.8228 35.4875C20.2494 35.1249 20.7614 34.8475 21.3588 34.6555C21.9561 34.4529 22.5854 34.3515 23.2468 34.3515C24.3348 34.3515 25.1721 34.6235 25.7588 35.1675C26.3561 35.7009 26.6548 36.5169 26.6548 37.6155V42.8315H25.5668ZM22.6708 42.9115C22.0414 42.9115 21.4921 42.8102 21.0228 42.6075C20.5641 42.3942 20.2121 42.1062 19.9668 41.7435C19.7214 41.3702 19.5988 40.9435 19.5988 40.4635C19.5988 40.0262 19.7001 39.6315 19.9028 39.2795C20.1161 38.9169 20.4574 38.6289 20.9268 38.4155C21.4068 38.1915 22.0468 38.0795 22.8468 38.0795H25.7428V38.9275H22.8788C22.0681 38.9275 21.5028 39.0715 21.1828 39.3595C20.8734 39.6475 20.7188 40.0049 20.7188 40.4315C20.7188 40.9115 20.9054 41.2955 21.2788 41.5835C21.6521 41.8715 22.1748 42.0155 22.8468 42.0155C23.4868 42.0155 24.0361 41.8715 24.4948 41.5835C24.9641 41.2849 25.3054 40.8582 25.5188 40.3035L25.7748 41.0875C25.5614 41.6422 25.1881 42.0849 24.6548 42.4155C24.1321 42.7462 23.4708 42.9115 22.6708 42.9115ZM29.7403 42.8315V34.4315H30.8283V36.7195L30.7163 36.3195C30.9509 35.6795 31.3456 35.1942 31.9003 34.8635C32.4549 34.5222 33.1429 34.3515 33.9643 34.3515V35.4555C33.9216 35.4555 33.8789 35.4555 33.8363 35.4555C33.7936 35.4449 33.7509 35.4395 33.7083 35.4395C32.8229 35.4395 32.1296 35.7115 31.6283 36.2555C31.1269 36.7889 30.8763 37.5515 30.8763 38.5435V42.8315H29.7403ZM40.3251 34.3515C41.0078 34.3515 41.6051 34.4849 42.1171 34.7515C42.6398 35.0075 43.0451 35.4022 43.3331 35.9355C43.6318 36.4689 43.7811 37.1409 43.7811 37.9515V42.8315H42.6451V38.0635C42.6451 37.1782 42.4211 36.5115 41.9731 36.0635C41.5358 35.6049 40.9171 35.3755 40.1171 35.3755C39.5198 35.3755 38.9971 35.4982 38.5491 35.7435C38.1118 35.9782 37.7705 36.3249 37.5251 36.7835C37.2905 37.2315 37.1731 37.7755 37.1731 38.4155V42.8315H36.0371V34.4315H37.1251V36.7355L36.9491 36.3035C37.2158 35.6955 37.6425 35.2209 38.2291 34.8795C38.8158 34.5275 39.5145 34.3515 40.3251 34.3515Z" fill="white"/>
</svg>
